<svg width="459" height="227" viewBox="0 0 459 227" xmlns="http://www.w3.org/2000/svg" xmlns:xlink="http://www.w3.org/1999/xlink"><title>Grad Show_ chunky slash_black</title><defs><path id="a" d="M0.06 0.463L0.06 176.575 378.492 176.575 378.492 0.463 0.06 0.463z"/><path id="c" d="M215.529 113.7885L215.529 226.94 0.712 226.94 0.712 0.637 215.529 0.637z"/></defs><g fill="none" fill-rule="evenodd"><path d="M106.474 21.071c17.515 0 27.839 9.512 32.595 20.184l-14.616 6.147c-3.247-7.771-9.163-11.948-17.747-11.948-12.992 0-20.532 9.977-20.532 26.448 0 16.704 7.308 26.795 20.648 26.795 11.484 0 16.703-7.308 17.631-16.703h-22.387V56.566h37.467v44.775h-15.312v-6.96c-3.364 4.06-10.671 8.352-20.531 8.352-21.576 0-34.916-16.703-34.916-40.831 0-24.244 14.848-40.831 37.7-40.831m66.004 36.191h13.803c4.408 0 8.584-.232 11.368-2.088 2.32-1.508 3.712-3.944 3.712-7.656 0-3.712-1.392-6.148-3.712-7.655-2.784-1.856-6.96-2.088-11.368-2.088h-13.803v19.487zm0 15.08v28.999h-17.4V22.463h29.579c8.816 0 14.616.812 18.792 2.436 9.164 3.712 15.196 11.02 15.196 22.619 0 12.064-6.38 19.836-16.588 22.62l19.604 31.203h-19.836l-17.632-28.999h-11.715zm96.047-23.316c-1.392-4.988-2.668-10.207-2.668-10.207h-.116s-1.392 5.219-2.9 10.323l-6.728 22.156h18.908l-6.496-22.272zm-21.228 52.315h-18.443l26.563-78.878h21.228l26.331 78.878h-18.792l-4.64-15.66h-27.722l-4.525 15.66z" fill="#000"/><g transform="translate(0 22)"><mask id="b" fill="#fff"><use xlink:href="#a"/></mask><path d="M327.801 62.986h8.004c8.004 0 14.384-.117 18.327-4.06 3.365-3.364 6.264-9.976 6.264-18.792 0-8.352-2.668-15.196-7.075-19.023-4.061-3.48-9.628-4.06-18.792-4.06h-6.728v45.935zm-17.399 16.355V.463h28.999c7.076 0 14.5.348 20.995 3.596 12.18 5.916 18.096 20.067 18.096 35.611 0 13.572-4.408 24.36-11.716 31.435-8.352 8.236-17.863 8.236-32.479 8.236h-23.895zM54.287 117.996c-5.452-5.219-12.528-8.584-20.415-8.584-7.308 0-12.412 3.017-12.412 8.004 0 5.105 3.596 7.193 10.788 8.584l12.759 2.552c14.616 2.9 23.78 8.7 23.78 22.62 0 16.356-14.5 25.403-33.176 25.403-18.211 0-30.739-9.744-35.611-16.471l12.18-10.441c4.872 6.496 12.992 12.296 23.895 12.296 9.164 0 14.5-3.595 14.5-9.395 0-5.452-4.64-6.96-11.832-8.237l-10.207-1.971c-14.384-2.784-25.288-8.004-25.288-23.432 0-14.151 13.108-24.011 30.392-24.011 13.919 0 25.055 5.22 31.783 12.412l-11.136 10.671" fill="#000" mask="url(#b)"/></g><path fill="#000" d="M99.875 164.472L99.875 197.183 82.359 197.183 82.359 118.305 99.875 118.305 99.875 148.697 129.106 148.697 129.106 118.305 146.622 118.305 146.622 197.183 129.106 197.183 129.106 164.472 99.875 164.472"/><path d="M198.241 183.843c13.34 0 20.648-9.627 20.648-26.099 0-16.471-7.54-26.448-20.648-26.448-13.224 0-20.648 9.977-20.648 26.448 0 16.472 7.192 26.099 20.648 26.099zm0-66.93c23.316 0 38.163 16.587 38.163 40.831 0 24.127-13.803 40.831-38.163 40.831-24.012 0-38.163-16.704-38.163-40.831 0-24.244 14.847-40.831 38.163-40.831z" fill="#000"/><g transform="translate(243)"><mask id="d" fill="#fff"><use xlink:href="#c"/></mask><path d="M62.307 118.305l7.424 27.144c3.828 13.919 7.656 30.739 7.656 30.739h.232s3.248-18.328 6.843-34.915l4.872-22.968h18.212l-19.255 78.878h-20.3l-6.96-25.403c-3.48-12.644-6.844-28.999-6.844-28.999h-.115s-2.668 12.643-6.844 28.419l-6.96 25.983H19.852L.712 118.305h18.329l5.335 24.243c2.436 11.136 6.496 34.451 6.496 34.451h.116s3.364-15.659 7.656-32.363l6.728-26.331h16.935" fill="#000" mask="url(#d)"/><path fill="#000" mask="url(#d)" d="M141.266 227L124.656 221.414 198.918 0.637 215.529 6.223 141.266 227"/></g></g></svg>