<?xml version="1.0" encoding="UTF-8"?>
<svg width="257px" height="142px" viewBox="0 0 257 142" version="1.1" xmlns="http://www.w3.org/2000/svg" xmlns:xlink="http://www.w3.org/1999/xlink">
    <!-- Generator: Sketch 46.2 (44496) - http://www.bohemiancoding.com/sketch -->
    <title>Group 6</title>
    <desc>Created with Sketch.</desc>
    <defs></defs>
    <g id="Page-1" stroke="none" stroke-width="1" fill="none" fill-rule="evenodd">
        <g id="home-students-copy" transform="translate(-1029.000000, -756.000000)" fill="#000000">
            <g id="Group-6" transform="translate(1029.000000, 756.000000)">
                <path d="M65.9199469,74.006 C65.1989469,71.843 64.7869469,69.474 64.7869469,67.208 C64.7869469,60.513 68.4949469,54.436 76.3229469,54.436 C83.4299469,54.436 87.8589469,59.071 87.8589469,66.178 C87.8589469,75.345 81.8849469,80.598 73.1299469,88.426 C62.9329469,97.593 57.4739469,101.61 51.7059469,105.421 L51.7059469,115 L102.484947,115 L102.484947,104.288 L81.6789469,104.288 C74.5719469,104.288 70.7609469,104.391 70.7609469,104.391 L70.7609469,104.288 L73.9539469,101.816 C86.2109469,92.649 100.836947,81.319 100.836947,65.457 C100.836947,52.376 91.5669469,43.724 77.3529469,43.724 C62.5209469,43.724 52.6329469,52.685 52.6329469,64.942 C52.6329469,68.238 53.2509469,70.504 53.8689469,72.358 L65.9199469,74.006 Z M159.985973,80.289 C159.985973,98.108 154.217973,116.236 133.411973,116.236 C113.532973,116.236 106.425973,100.065 106.425973,80.289 C106.425973,63.397 113.017973,43.724 133.411973,43.724 C152.878973,43.724 159.985973,61.646 159.985973,80.289 Z M147.110973,80.495 C147.110973,68.444 144.329973,54.848 133.411973,54.848 C122.390973,54.848 119.403973,68.444 119.403973,80.495 C119.403973,92.34 122.390973,105.112 133.411973,105.112 C144.432973,105.112 147.110973,92.34 147.110973,80.495 Z M194.831973,44.96 L184.737973,44.96 C184.531973,50.316 182.883973,54.333 179.381973,56.908 C176.703973,58.865 172.995973,59.895 167.433973,59.895 L163.725973,59.895 L163.725973,69.268 L182.986973,69.268 L182.986973,115 L194.831973,115 L194.831973,44.96 Z M230.325973,116.236 C214.051973,116.236 204.163973,108.408 204.163973,95.533 C204.163973,87.396 208.489973,81.937 216.111973,79.053 C210.961973,76.684 206.120973,72.152 206.120973,63.088 C206.120973,51.964 215.287973,43.724 230.325973,43.724 C245.363973,43.724 254.530973,51.964 254.530973,63.088 C254.530973,72.152 249.689973,76.684 244.539973,79.053 C252.161973,81.937 256.487973,87.396 256.487973,95.533 C256.487973,108.408 246.599973,116.236 230.325973,116.236 Z M230.325973,54.127 C221.673973,54.127 218.068973,58.865 218.068973,64.015 C218.068973,68.959 221.982973,74.212 230.325973,74.212 C238.668973,74.212 242.582973,68.959 242.582973,64.015 C242.582973,58.865 238.977973,54.127 230.325973,54.127 Z M230.325973,83.894 C221.570973,83.894 216.626973,88.22 216.626973,94.503 C216.626973,101.095 221.982973,105.421 230.325973,105.421 C238.462973,105.421 244.024973,101.713 244.024973,94.4 C244.024973,88.117 238.977973,83.894 230.325973,83.894 Z" id="2018"></path>
                <polyline id="Fill-12" points="10.3771599 141.601524 0 138.107198 46.3954634 0 56.773248 3.49432599 10.3771599 141.601524"></polyline>
            </g>
        </g>
    </g>
</svg>