<svg xmlns="http://www.w3.org/2000/svg" xmlns:xlink="http://www.w3.org/1999/xlink" width="242" height="99" viewBox="0 0 242 99">
  <defs>
    <polygon id="mgs2018logoarrow-a" points=".026 .202 .026 77.008 164.489 77.008 164.489 .202 .026 .202"/>
    <polygon id="mgs2018logoarrow-c" points="93.667 49.626 93.667 98.974 .309 98.974 .309 .278 93.667 .278"/>
  </defs>
  <g fill="none" fill-rule="evenodd">
    <g transform="translate(42)">
      <path fill="#000" d="M46.2726295 9.18955507C53.8844887 9.18955507 58.371205 13.3379604 60.4381192 17.9922687L54.0861389 20.6731189C52.6750223 17.2840044 50.1039827 15.4623172 46.3734546 15.4623172 40.7272498 15.4623172 37.4504346 19.8135198 37.4504346 26.9969075 37.4504346 34.2819119 40.6264247 38.6828326 46.4238671 38.6828326 51.4147088 38.6828326 53.6828386 35.4956432 54.0861389 31.3982643L44.3569529 31.3982643 44.3569529 24.6697533 60.6397694 24.6697533 60.6397694 44.1971762 53.9853138 44.1971762 53.9853138 41.1617577C52.5233501 42.9324185 49.3477945 44.8042599 45.0627285 44.8042599 35.6859956 44.8042599 29.8885533 37.5196916 29.8885533 26.9969075 29.8885533 16.423533 36.3413587 9.18955507 46.2726295 9.18955507M74.957366 24.9732952L80.9560239 24.9732952C82.8717005 24.9732952 84.686552 24.8721145 85.896453 24.0626696 86.9047039 23.4049956 87.5096544 22.3425991 87.5096544 20.7237093 87.5096544 19.1048194 86.9047039 18.0424229 85.896453 17.385185 84.686552 16.5757401 82.8717005 16.4745595 80.9560239 16.4745595L74.957366 16.4745595 74.957366 24.9732952zM74.957366 31.5500352L74.957366 44.1971762 67.3954846 44.1971762 67.3954846 9.79663877 80.2502483 9.79663877C84.0816015 9.79663877 86.6022286 10.1507709 88.4170802 10.8590352 92.399671 12.4779251 95.0211232 15.6651145 95.0211232 20.7237093 95.0211232 25.9851013 92.2484334 29.374652 87.8121296 30.5888194L96.3318493 44.1971762 87.7113046 44.1971762 80.0485982 31.5500352 74.957366 31.5500352 74.957366 31.5500352zM116.698516 21.3813833C116.093566 19.206 115.539028 16.9298722 115.539028 16.9298722L115.488615 16.9298722C115.488615 16.9298722 114.883665 19.206 114.228302 21.4319736L111.304374 31.0947225 119.521619 31.0947225 116.698516 21.3813833zM107.473021 44.1971762L99.4578615 44.1971762 111.001899 9.79663877 120.227394 9.79663877 131.670607 44.1971762 123.503775 44.1971762 121.487273 37.3674846 109.439545 37.3674846 107.473021 44.1971762 107.473021 44.1971762z"/>
      <g transform="translate(0 9.595)">
        <mask id="mgs2018logoarrow-b" fill="#fff">
          <use xlink:href="#mgs2018logoarrow-a"/>
        </mask>
        <path fill="#000" d="M142.459325 27.4696652L145.937791 27.4696652C149.416256 27.4696652 152.188946 27.4186388 153.902538 25.6990044 155.364936 24.2318855 156.624815 21.3482379 156.624815 17.5033744 156.624815 13.8608722 155.465327 10.8760441 153.550085 9.207 151.785211 7.68929075 149.365844 7.43633921 145.383253 7.43633921L142.459325 7.43633921 142.459325 27.4696652zM134.897879 34.6024626L134.897879.20192511 147.50058.20192511C150.575745.20192511 153.802147.353696035 156.624815 1.77022467 161.918132 4.3503304 164.489172 10.5219119 164.489172 17.3010132 164.489172 23.2200793 162.573495 27.924978 159.397505 31.0105507 155.767802 34.6024626 151.634408 34.6024626 145.282428 34.6024626L134.897879 34.6024626 134.897879 34.6024626zM23.5926352 51.4608106C21.2232457 49.1846828 18.1480806 47.7171278 14.7204623 47.7171278 11.5444722 47.7171278 9.32632031 49.0329119 9.32632031 51.207859 9.32632031 53.4342687 10.8891091 54.3448943 14.0146867 54.9515419L19.5596318 56.0645286C25.9116121 57.3292863 29.8942029 59.8588018 29.8942029 65.9296388 29.8942029 73.0628722 23.5926352 77.0084802 15.4762159 77.0084802 7.56188133 77.0084802 2.11732677 72.7588943 0 69.8250925L5.29331693 65.2715286C7.4106437 68.1045859 10.9395217 70.6341013 15.677866 70.6341013 19.6604569 70.6341013 21.9794338 69.0662379 21.9794338 66.5367225 21.9794338 64.158978 19.9629321 63.501304 16.8373545 62.9443744L12.4014854 62.0847753C6.15033015 60.8706079 1.41155118 58.5940441 1.41155118 51.865533 1.41155118 45.6939515 7.10816845 41.3937753 14.6196372 41.3937753 20.6687077 41.3937753 25.5083118 43.6703392 28.4322392 46.8069383L23.5926352 51.4608106" mask="url(#mgs2018logoarrow-b)"/>
      </g>
      <polyline fill="#000" points="43.405 71.73 43.405 85.996 35.792 85.996 35.792 51.596 43.405 51.596 43.405 64.85 56.108 64.85 56.108 51.596 63.721 51.596 63.721 85.996 56.108 85.996 56.108 71.73 43.405 71.73"/>
      <path fill="#000" d="M86.1537308,80.1782247 C91.9511732,80.1782247 95.1271634,75.9796652 95.1271634,68.7958414 C95.1271634,61.6124537 91.8503481,57.2612511 86.1537308,57.2612511 C80.406701,57.2612511 77.1802983,61.6124537 77.1802983,68.7958414 C77.1802983,75.9796652 80.305876,80.1782247 86.1537308,80.1782247 Z M86.1537308,50.988489 C96.2866518,50.988489 102.739023,58.222467 102.739023,68.7958414 C102.739023,79.3181894 96.7403647,86.6031938 86.1537308,86.6031938 C75.7183346,86.6031938 69.5684391,79.3181894 69.5684391,68.7958414 C69.5684391,58.222467 76.0208099,50.988489 86.1537308,50.988489 L86.1537308,50.988489 Z"/>
      <g transform="translate(105.606)">
        <mask id="mgs2018logoarrow-d" fill="#fff">
          <use xlink:href="#mgs2018logoarrow-c"/>
        </mask>
        <path fill="#000" d="M27.078054,51.5955727 L30.3044567,63.4337048 C31.9680706,69.5041057 33.6316845,76.8397004 33.6316845,76.8397004 L33.7325096,76.8397004 C33.7325096,76.8397004 35.1440608,68.8464317 36.706415,61.6124537 L38.8237418,51.5955727 L46.7385109,51.5955727 L38.3704635,85.9961101 L29.5482686,85.9961101 L26.5235161,74.9172687 C25.0111398,69.4029251 23.5491761,62.2701278 23.5491761,62.2701278 L23.4991981,62.2701278 C23.4991981,62.2701278 22.3397096,67.7840352 20.5248581,74.6643172 L17.5001056,85.9961101 L8.62749817,85.9961101 L0.309428707,51.5955727 L8.27504497,51.5955727 L10.5935873,62.168511 C11.6522507,67.0251806 13.4166897,77.1933965 13.4166897,77.1933965 L13.4671022,77.1933965 C13.4671022,77.1933965 14.9290659,70.364141 16.79433,63.0791366 L19.7182575,51.5955727 L27.078054,51.5955727" mask="url(#mgs2018logoarrow-d)"/>
        <polyline fill="#000" points="61.393 99 54.174 96.564 86.448 .278 93.667 2.714 61.393 99" mask="url(#mgs2018logoarrow-d)"/>
      </g>
    </g>
    <polygon fill="#000" points="14.295 35 0 49.474 14.295 64 16.727 61.53 6.254 51.24 34 51.24 34 47.71 6.254 47.71 16.677 37.47"/>
  </g>
</svg>
