<svg width="446" height="184" viewBox="0 0 446 184" xmlns="http://www.w3.org/2000/svg" xmlns:xlink="http://www.w3.org/1999/xlink"><title>MICA_SecondaryLockUp1_RegularScale_Black</title><defs><path id="a" d="M0.06 74.141L0.06 0.284 117.578 0.284 117.578 74.141z"/></defs><g fill="none" fill-rule="evenodd"><g transform="translate(0 19)"><mask id="b" fill="#fff"><use xlink:href="#a"/></mask><path d="M69.849 74.141V55.704h7.904V23.569c-2.422 8.531-5.267 17.065-7.904 25.497-2.741 8.326-4.951 16.749-7.583 25.075H48.357c-2.632-7.273-4.95-14.539-7.479-21.81-3.159-9.165-5.902-18.648-9.479-27.605v30.978h8.635v18.437H0V55.704h8.218V18.616H0V.284h55.631c1.999 6.638 4.526 13.063 6.422 19.701 2.11-6.741 4.742-13.168 7.271-19.701h48.254v18.332h-8.22v37.088h8.22v18.437H69.849" fill="#000" mask="url(#b)"/></g><path fill="#000" d="M159.508 93.141L159.508 74.704 167.726 74.704 167.726 37.616 159.508 37.616 159.508 19.284 208.607 19.284 208.607 37.616 200.389 37.616 200.389 74.704 208.607 74.704 208.607 93.141 159.508 93.141"/><path d="M304.691 53.737v-.949c.105-6.743-2.005-16.435-10.644-16.435-11.166 0-11.799 12.115-11.799 20.441 0 8.11 1.265 20.542 12.015 20.542 9.898 0 11.586-8.218 10.742-16.33h21.077v3.476c-.214 21.705-16.971 30.025-36.769 30.025-24.764 0-41.725-12.218-41.725-38.135 0-21.916 13.593-38.565 36.247-38.565 10.528 0 16.114 3.268 22.227 11.697l.208-10.22h20.012v34.453h-21.591m89.973-10.854c-1.16 4.952-2.632 9.905-4.113 14.752h8.225c-1.369-4.952-2.954-9.694-4.112-14.752zm1.688 50.258V74.704h7.058c-.844-2.848-1.688-5.691-2.424-8.534h-12.538c-.736 2.843-1.579 5.686-2.423 8.534h7.585v18.437h-33.605V74.704h6.53c6.219-18.44 12.221-36.985 18.545-55.42h33.502c5.792 18.543 11.797 37.088 18.118 55.42h8.851v18.437h-49.199z" fill="#000"/><path fill="#000" d="M136.636 111.759L138.951 111.759 138.951 0.729 136.636 0.729z"/><path fill="#000" d="M226.906 111.759L229.221 111.759 229.221 0.729 226.906 0.729z"/><path fill="#000" d="M328.827 111.325L331.024 112.061 368.316 1.12 366.118 0.385 328.827 111.325"/><path d="M365.308 166.208h6.071v17.457h1.762v-17.457h6.099v-1.567h-13.932v1.567zm-14.407 0h5.343c1.875 0 2.686.168 3.469.531 1.231.56 1.958 1.623 1.958 3.19 0 1.566-.727 2.629-1.958 3.217-.783.336-1.594.531-3.469.531h-5.343v-7.469zm10.91 17.457h2.266l-6.042-8.449c1.091-.084 2.21-.336 3.161-.951 1.483-.895 2.378-2.266 2.378-4.308 0-2.043-.895-3.441-2.378-4.337-1.371-.867-2.966-.979-4.56-.979h-7.498v19.024h1.763v-8.421h5.035l5.875 8.421zm-20.422-7.358h-6.994l2.658-6.966c.503-1.287.615-1.678.839-2.35h.028c.196.672.364 1.203.811 2.322l2.658 6.994zm-7.581 1.623h8.197l2.126 5.735h1.902l-7.19-19.024h-1.734l-7.246 19.024h1.875l2.07-5.735zm-23.556 5.735v-9.064h9.456v-1.567h-9.456v-6.826h10.463v-1.567h-12.253v19.024h1.79zm-20.366-9.512c0-4.924 2.406-8.309 6.211-8.309s6.211 3.385 6.211 8.309c0 4.924-2.462 8.309-6.211 8.309s-6.211-3.385-6.211-8.309zm-1.874 0c0 5.903 3.049 9.847 8.085 9.847 5.064 0 8.085-3.944 8.085-9.847 0-5.987-3.049-9.847-8.085-9.847-5.036 0-8.085 3.86-8.085 9.847zm-12.057 7.945h-11.274v-7.413h9.707v-1.595h-9.707v-6.882h10.714v-1.567h-12.477v19.024h13.037v-1.567zm-25.738.336c-3.832 0-6.21-3.357-6.21-8.281s2.378-8.281 6.21-8.281c2.91 0 4.644 1.875 5.512 4.029l1.538-1.007c-.951-2.238-3.049-4.588-7.05-4.588-5.007 0-8.056 3.86-8.056 9.847S245.07 184 250.217 184c3.078 0 4.84-1.65 5.54-2.937v2.602h1.566v-9.624h-8.448v1.567h6.91v.168c0 2.182-.42 3.636-1.175 4.699-.924 1.315-2.574 1.959-4.393 1.959zm-11.134-.336h-11.274v-7.413h9.708v-1.595h-9.708v-6.882h10.715v-1.567h-12.477v19.024h13.036v-1.567zm-15.638 0h-10.491v-17.457h-1.762v19.024h12.253v-1.567zm-14.855 0h-10.491v-17.457h-1.762v19.024h12.253v-1.567zm-30.829-7.945c0-4.924 2.406-8.309 6.211-8.309s6.21 3.385 6.21 8.309c0 4.924-2.461 8.309-6.21 8.309s-6.211-3.385-6.211-8.309zm-1.874 0c0 5.903 3.049 9.847 8.085 9.847 5.063 0 8.085-3.944 8.085-9.847 0-5.987-3.05-9.847-8.085-9.847-5.036 0-8.085 3.86-8.085 9.847zm-3.161-5.259c-.951-2.238-3.05-4.588-7.05-4.588-5.008 0-8.057 3.86-8.057 9.847s2.909 9.847 8.057 9.847c4.224 0 6.155-2.573 7.134-4.811l-1.567-.84c-.783 2.182-2.49 4.085-5.567 4.085-3.833 0-6.211-3.357-6.211-8.281s2.378-8.281 6.211-8.281c2.909 0 4.644 1.875 5.511 4.029l1.539-1.007zm272.814-16.701h-11.274v-7.413h9.707v-1.595h-9.707v-6.882h10.715v-1.567h-12.477v19.024h13.036v-1.567zm-30.269-15.89h6.071v17.457h1.762v-17.457h6.099v-1.567h-13.932v1.567zm-10.239 17.82c3.609 0 6.154-1.622 6.91-4.839.14-.7.224-1.315.224-3.357v-11.191h-1.763v11.33c0 2.239-.168 3.078-.531 3.889-.784 1.79-2.518 2.602-4.84 2.602-2.35 0-4.085-.812-4.868-2.602-.364-.811-.531-1.65-.531-3.889v-11.33h-1.763v11.191c0 2.042.084 2.657.252 3.357.755 3.217 3.329 4.839 6.91 4.839zm-24.199-17.82h6.071v17.457h1.762v-17.457h6.099v-1.567h-13.932v1.567zm-5.063 17.457h1.762v-19.024h-1.762v19.024zm-17.233-17.457h6.071v17.457h1.762v-17.457h6.099v-1.567h-13.932v1.567zm-2.265.979c-1.147-1.511-3.246-2.881-6.379-2.881-3.777 0-6.406 2.154-6.406 5.119 0 3.385 2.434 4.336 5.259 4.952l2.378.531c2.714.588 4.056 1.483 4.056 3.553 0 2.378-1.846 3.973-5.119 3.973-3.273 0-5.232-1.847-5.987-3.805l-1.566 1.035c.979 2.126 3.385 4.336 7.525 4.336 4.364 0 7.022-2.405 7.022-5.651 0-3.133-2.014-4.364-5.343-5.091l-2.546-.56c-2.518-.559-3.833-1.315-3.833-3.413 0-2.042 1.902-3.385 4.476-3.385 2.182 0 3.861.923 5.064 2.49l1.399-1.203zm-30.381-2.546h-1.763v19.024h1.763v-13.652c0-1.371-.056-2.126-.112-2.798h.028c.084.252.867 1.567 1.622 2.63l9.652 13.82h1.762v-19.024h-1.762v13.624c0 1.371.028 2.099.084 2.77h-.028c-.084-.252-.812-1.511-1.567-2.574l-9.679-13.82zm-8.84 19.024h1.762v-19.024h-1.762v19.024zm-26.325-17.457h2.406c3.245 0 4.896.056 6.406 1.371 1.595 1.371 2.434 3.916 2.434 6.602 0 2.993-1.063 5.427-2.434 6.602-1.454 1.315-3.217 1.315-5.763 1.315h-3.049v-15.89zm2.574 17.457c3.721 0 5.791 0 7.777-1.959 1.762-1.706 2.77-4.42 2.77-7.609 0-3.469-1.259-6.966-4.113-8.504-1.566-.868-3.301-.952-5.847-.952h-4.923v19.024h4.336zm-22.996-19.024h-1.762v19.024h1.762v-13.652c0-1.371-.056-2.126-.112-2.798h.028c.084.252.867 1.567 1.623 2.63l9.651 13.82h1.763v-19.024h-1.763v13.624c0 1.371.028 2.099.084 2.77h-.028c-.084-.252-.811-1.511-1.566-2.574l-9.68-13.82zm-9.791 11.666h-6.994l2.658-6.966c.503-1.287.615-1.678.839-2.35h.028c.196.672.363 1.203.811 2.322l2.658 6.994zm-7.582 1.623h8.197l2.126 5.735h1.903l-7.19-19.024h-1.734l-7.246 19.024h1.874l2.07-5.735zm-5.874 4.168h-10.491v-17.457h-1.763v19.024h12.254v-1.567zm-22.325-6.238l7.218-11.219h-2.07l-5.931 9.428-5.735-9.428h-2.126l6.882 11.219v7.805h1.762v-7.805zm-23.415-9.652h5.343c1.875 0 2.686.168 3.469.532 1.231.559 1.958 1.622 1.958 3.189 0 1.566-.727 2.629-1.958 3.217-.783.336-1.594.531-3.469.531h-5.343v-7.469zm10.91 17.457h2.266l-6.042-8.449c1.091-.084 2.21-.336 3.161-.951 1.483-.895 2.378-2.266 2.378-4.308s-.895-3.441-2.378-4.337c-1.371-.867-2.965-.979-4.56-.979h-7.498v19.024h1.763v-8.421h5.036l5.874 8.421zm-20.702-7.358h-6.993l2.657-6.966c.504-1.287.616-1.678.839-2.35h.028c.196.672.364 1.203.812 2.322l2.657 6.994zm-7.581 1.623h8.197l2.126 5.735h1.902l-7.189-19.024h-1.735l-7.246 19.024h1.875l2.07-5.735zm-10.351-6.798a37.26 37.26 0 0 0 1.399-4.169h.028c-.084.812-.168 3.553-.168 5.204v11.498h1.763v-19.024h-2.155l-5.287 13.457c-.531 1.342-.783 2.126-.923 2.881h-.028c-.14-.727-.532-1.622-1.063-2.909l-5.567-13.429h-2.07v19.024h1.762v-12.002c0-1.65-.084-3.469-.196-4.336h.028c.252.951.616 2.098 1.371 3.917l5.147 12.421h1.064l4.895-12.533z" fill="#000"/></g></svg>