<svg width="90" height="23" viewBox="0 0 90 23" xmlns="http://www.w3.org/2000/svg" xmlns:xlink="http://www.w3.org/1999/xlink"><title>MICA_Logo_SmallScale_Black</title><defs><path id="a" d="M28.69 22.94L28.69 0.67 0.306 0.67 0.306 22.94z"/></defs><g fill="none" fill-rule="evenodd"><path fill="#000" d="M32.964 19.196L32.964 15.52 34.602 15.52 34.602 8.125 32.964 8.125 32.964 4.47 42.754 4.47 42.754 8.125 41.115 8.125 41.115 15.52 42.754 15.52 42.754 19.196 32.964 19.196"/><path d="M61.913 11.339v-.189c.021-1.343-.4-3.277-2.122-3.277-2.228 0-2.354 2.416-2.354 4.076 0 1.617.252 4.097 2.396 4.097 1.974 0 2.311-1.639 2.143-3.257h4.202v.692c-.042 4.329-3.384 5.989-7.332 5.989-4.938 0-8.32-2.437-8.32-7.605 0-4.369 2.71-7.69 7.228-7.69 2.099 0 3.214.653 4.432 2.332l.042-2.037h3.991v6.869h-4.306" fill="#000"/><path fill="#000" d="M28.307 22.909L28.96 22.909 28.96 0.77 28.307 0.77z"/><g transform="translate(46)"><mask id="b" fill="#fff"><use xlink:href="#a"/></mask><path fill="#000" mask="url(#b)" d="M0.306 22.909L0.96 22.909 0.96 0.77 0.306 0.77z"/><path fill="#000" mask="url(#b)" d="M21.254 23L28.69 0.878 28.071 0.67 20.635 22.791z"/></g><path d="M5.706 15.52h1.336v3.676H0V15.52h1.638V8.125H0V4.47h11.092c.399 1.324.903 2.605 1.281 3.929.42-1.345.945-2.626 1.45-3.929h9.622v3.655h-1.639v7.395h1.639v3.676h-8.628V15.52h1.239V9.106l-3.792 10.09h-2.47L5.706 9.337v6.183m74.147-7.403c-.23.987-1.005 3.033-1.3 4h2.635c-.272-.987-1.104-2.992-1.335-4zm.874 11.079V15.52h1.598c-.168-.566-.422-1.134-.569-1.702h-3.748c-.147.568-.378 1.136-.546 1.702h1.635v3.676h-6.155V15.52h1.302c1.24-3.676 2.437-7.374 3.698-11.05h6.681a392.598 392.598 0 0 0 3.612 11.05H90v3.676h-9.273z" fill="#000"/></g></svg>
